# xmcd
#
# Track frame offsets: 
#        150
#        12862
#        28835
#        44607
#        62620
#        77472
#        90970
#        104502
#        127172
#        139512
#
# Disc length: 2054 seconds
#
# Revision: 0
# Processed by: cddbd v1.5.1PL2 Copyright (c) Steve Scherf et al.
# Submitted via: ExactAudioCopy v0.95b4
#
DISCID=7b08040a
DTITLE=Ronnie Mason - Sticks and Wheels
DYEAR=2000
DGENRE=Traditional Country
TTITLE0=Sticks and Wheels
TTITLE1=Jerry
TTITLE2=Gonna Find Me A Bluebird
TTITLE3=Farewell Party
TTITLE4=My Woman, My Woman, My Wife
TTITLE5=Le'ah
TTITLE6=Fool, Fool, Fool
TTITLE7=El Paso
TTITLE8=Cryin'
TTITLE9=Indian Love Call
EXTD=
EXTT0=
EXTT1=
EXTT2=
EXTT3=
EXTT4=
EXTT5=
EXTT6=
EXTT7=
EXTT8=
EXTT9=
PLAYORDER=
